<svg height="512" viewBox="0 0 128 128" width="512" xmlns="http://www.w3.org/2000/svg"><path d="m11.211 54.42 8.571 3.773v20.512a5.107 5.107 0 0 0 -2.543 7.628l-.571 3.049q-.86 4.591-1.694 9.064a1.749 1.749 0 0 0 1.077 1.947 14.833 14.833 0 0 0 10.963 0 1.75 1.75 0 0 0 1.076-1.947q-.831-4.473-1.694-9.064l-.57-3.049a5.109 5.109 0 0 0 -2.544-7.633v-18.966l7.442 3.275v23.349c0 3.108 1.917 7.447 11.051 10.473 5.891 1.951 13.784 3.025 22.225 3.025 16.563 0 33.276-4.173 33.276-13.5v-23.347l19.513-8.589a1.75 1.75 0 0 0 0-3.2l-52.084-22.928a1.748 1.748 0 0 0 -1.41 0l-52.084 22.925a1.75 1.75 0 0 0 0 3.2zm11.962 29.1a1.641 1.641 0 1 1 -1.641-1.642 1.643 1.643 0 0 1 1.641 1.641zm-4.473 14.061q.7-3.736 1.412-7.555l.282-1.5a4.8 4.8 0 0 0 2.285 0l.282 1.5q.714 3.819 1.412 7.555a11.332 11.332 0 0 1 -5.673 0zm75.076-33.031v21.808c0 5.7-12.8 10-29.776 10s-29.776-4.3-29.776-10v-21.808l29.076 12.796a1.748 1.748 0 0 0 1.41 0zm-29.776-32.744 47.74 21.013-47.74 21.013-35.667-15.7 35.84-3.573a1.75 1.75 0 1 0 -.346-3.482l-42.01 4.187-5.557-2.445z"/></svg>